<svg xmlns="http://www.w3.org/2000/svg" width="1270" height="890" viewBox="0 0 1270 890" role="img" aria-label="Event gold photo frame">
  <rect width="1270" height="890" fill="none"/>
  <rect x="20" y="20" width="1230" height="850" rx="26" fill="none" stroke="#b88a2d" stroke-width="18"/>
  <rect x="55" y="55" width="1160" height="780" rx="14" fill="none" stroke="#fff4d2" stroke-width="8" opacity="0.92"/>
  <path d="M0 0h1270v116H0z" fill="#8b6420" opacity="0.84"/>
  <path d="M0 774h1270v116H0z" fill="#8b6420" opacity="0.84"/>
  <path d="M79 818l24-14 24 14-6-27 21-18-28-3-11-25-11 25-28 3 21 18z" fill="#fff4d2" opacity="0.95"/>
  <path d="M1144 818l24-14 24 14-6-27 21-18-28-3-11-25-11 25-28 3 21 18z" fill="#fff4d2" opacity="0.95"/>
  <path d="M159 819h164" stroke="#fff4d2" stroke-width="7" stroke-linecap="round" opacity="0.8"/>
  <path d="M947 819h164" stroke="#fff4d2" stroke-width="7" stroke-linecap="round" opacity="0.8"/>
</svg>
