<svg xmlns="http://www.w3.org/2000/svg" width="1080" height="1080" viewBox="0 0 1080 1080">
  <defs><linearGradient id="charcoal" x1="0" y1="0" x2="1" y2="1"><stop offset="0" stop-color="#1e1d19"/><stop offset="0.55" stop-color="#3a3325"/><stop offset="1" stop-color="#211f1b"/></linearGradient><linearGradient id="gold" x1="0" y1="0" x2="1" y2="0"><stop offset="0" stop-color="#a77b2f"/><stop offset="0.5" stop-color="#f0d889"/><stop offset="1" stop-color="#a77b2f"/></linearGradient><filter id="shadow" x="-20%" y="-20%" width="140%" height="140%"><feDropShadow dx="0" dy="8" stdDeviation="8" flood-color="#000" flood-opacity="0.24"/></filter></defs>
  <rect x="0" y="0" width="1080" height="148" fill="url(#charcoal)" opacity="0.97"/><rect x="0" y="932" width="1080" height="148" fill="url(#charcoal)" opacity="0.97"/><rect x="0" y="0" width="44" height="1080" fill="url(#charcoal)" opacity="0.94"/><rect x="1036" y="0" width="44" height="1080" fill="url(#charcoal)" opacity="0.94"/>
  <rect x="24" y="24" width="1032" height="1032" rx="28" fill="none" stroke="url(#gold)" stroke-width="8"/><rect x="54" y="168" width="972" height="740" rx="20" fill="none" stroke="#fff8df" stroke-opacity="0.82" stroke-width="10"/><rect x="66" y="180" width="948" height="716" rx="14" fill="none" stroke="url(#gold)" stroke-width="4"/>
  <g filter="url(#shadow)"><rect x="70" y="42" width="392" height="78" rx="18" fill="#fff8df" opacity="0.94"/><text x="98" y="91" fill="#1e1d19" font-family="'Yu Mincho',serif" font-size="38" font-weight="700">葡萄房 軽井沢</text><text x="724" y="91" fill="#f0d889" font-family="Georgia,serif" font-size="24" letter-spacing="4">KARUIZAWA</text></g>
  <g opacity="0.9"><circle cx="914" cy="58" r="12" fill="#f0d889"/><circle cx="936" cy="75" r="12" fill="#fff8df"/><circle cx="892" cy="77" r="12" fill="#b8964a"/><path d="M892 46 C914 27 940 30 954 50 C928 51 910 52 892 46Z" fill="#8fbf74"/></g>
  <g transform="translate(280 744)" filter="url(#shadow)"><text x="260" y="70" text-anchor="middle" fill="#fff8df" font-family="'Yu Mincho',serif" font-size="102" font-weight="700">葡萄房</text><text x="260" y="132" text-anchor="middle" fill="#f0d889" font-family="Georgia,serif" font-size="30" letter-spacing="6">WINE &amp; TRATTORIA</text></g>
  <path d="M62 940 C180 900 260 976 380 926 C442 900 506 906 578 928" fill="none" stroke="url(#gold)" stroke-width="7" opacity="0.86"/><path d="M700 940 C802 902 876 974 1018 918" fill="none" stroke="url(#gold)" stroke-width="7" opacity="0.76"/>
  <text x="76" y="1012" fill="#fff8df" font-family="Arial,'Yu Gothic',sans-serif" font-size="24" font-weight="700">今日のわんちゃん</text><text x="792" y="1012" fill="#f0d889" font-family="Georgia,serif" font-size="22" letter-spacing="3">Buona giornata</text>
</svg>
