<svg xmlns="http://www.w3.org/2000/svg" width="1080" height="1080" viewBox="0 0 1080 1080">
  <defs><linearGradient id="ivory" x1="0" y1="0" x2="1" y2="1"><stop offset="0" stop-color="#fff8ea"/><stop offset="0.55" stop-color="#ead6af"/><stop offset="1" stop-color="#fff4dd"/></linearGradient><linearGradient id="wine" x1="0" y1="0" x2="1" y2="1"><stop offset="0" stop-color="#6e2638"/><stop offset="0.55" stop-color="#9a4152"/><stop offset="1" stop-color="#542131"/></linearGradient><filter id="shadow" x="-20%" y="-20%" width="140%" height="140%"><feDropShadow dx="0" dy="8" stdDeviation="8" flood-color="#000" flood-opacity="0.18"/></filter></defs>
  <rect x="0" y="0" width="1080" height="148" fill="url(#ivory)" opacity="0.97"/><rect x="0" y="932" width="1080" height="148" fill="url(#ivory)" opacity="0.97"/><rect x="0" y="0" width="44" height="1080" fill="url(#ivory)" opacity="0.94"/><rect x="1036" y="0" width="44" height="1080" fill="url(#ivory)" opacity="0.94"/>
  <rect x="24" y="24" width="1032" height="1032" rx="28" fill="none" stroke="#7d2d3f" stroke-width="8"/><rect x="54" y="168" width="972" height="740" rx="20" fill="none" stroke="#fff" stroke-opacity="0.86" stroke-width="10"/><rect x="66" y="180" width="948" height="716" rx="14" fill="none" stroke="#7d2d3f" stroke-opacity="0.72" stroke-width="4"/>
  <g filter="url(#shadow)"><rect x="70" y="42" width="392" height="78" rx="18" fill="url(#wine)"/><text x="98" y="91" fill="#fff8ea" font-family="'Yu Mincho',serif" font-size="38" font-weight="700">葡萄房 軽井沢</text><text x="724" y="91" fill="#7d2d3f" font-family="Georgia,serif" font-size="24" letter-spacing="4">KARUIZAWA</text></g>
  <g opacity="0.9"><circle cx="914" cy="58" r="12" fill="#7d2d3f"/><circle cx="936" cy="75" r="12" fill="#9b4052"/><circle cx="892" cy="77" r="12" fill="#64283a"/><path d="M892 46 C914 27 940 30 954 50 C928 51 910 52 892 46Z" fill="#6f8c50"/></g>
  <g transform="translate(280 744)" filter="url(#shadow)"><text x="260" y="70" text-anchor="middle" fill="#111" font-family="'Yu Mincho',serif" font-size="102" font-weight="700">葡萄房</text><text x="260" y="132" text-anchor="middle" fill="#7d2d3f" font-family="Georgia,serif" font-size="30" letter-spacing="6">WINE &amp; TRATTORIA</text></g>
  <path d="M62 940 C180 900 260 976 380 926 C442 900 506 906 578 928" fill="none" stroke="#7d2d3f" stroke-width="7" opacity="0.8"/><path d="M700 940 C802 902 876 974 1018 918" fill="none" stroke="#7d2d3f" stroke-width="7" opacity="0.64"/>
  <text x="76" y="1012" fill="#5b2535" font-family="Arial,'Yu Gothic',sans-serif" font-size="24" font-weight="700">今日のわんちゃん</text><text x="792" y="1012" fill="#7d2d3f" font-family="Georgia,serif" font-size="22" letter-spacing="3">Buona giornata</text>
</svg>
