<svg xmlns="http://www.w3.org/2000/svg" width="1080" height="1080" viewBox="0 0 1080 1080">
  <defs><linearGradient id="dark" x1="0" y1="0" x2="1" y2="1"><stop offset="0" stop-color="#171512"/><stop offset="0.55" stop-color="#3b2b1b"/><stop offset="1" stop-color="#201b16"/></linearGradient><linearGradient id="gold" x1="0" y1="0" x2="1" y2="0"><stop offset="0" stop-color="#8b6a2d"/><stop offset="0.5" stop-color="#e6c56f"/><stop offset="1" stop-color="#8b6a2d"/></linearGradient><filter id="shadow" x="-20%" y="-20%" width="140%" height="140%"><feDropShadow dx="0" dy="8" stdDeviation="8" flood-color="#000" flood-opacity="0.24"/></filter></defs>
  <rect x="0" y="0" width="1080" height="148" fill="url(#dark)" opacity="0.97"/><rect x="0" y="932" width="1080" height="148" fill="url(#dark)" opacity="0.97"/><rect x="0" y="0" width="44" height="1080" fill="url(#dark)" opacity="0.94"/><rect x="1036" y="0" width="44" height="1080" fill="url(#dark)" opacity="0.94"/>
  <rect x="24" y="24" width="1032" height="1032" rx="28" fill="none" stroke="url(#gold)" stroke-width="8"/><rect x="54" y="168" width="972" height="740" rx="20" fill="none" stroke="#fff4d6" stroke-opacity="0.82" stroke-width="10"/><rect x="66" y="180" width="948" height="716" rx="14" fill="none" stroke="url(#gold)" stroke-width="4"/>
  <g filter="url(#shadow)"><rect x="70" y="42" width="370" height="78" rx="18" fill="#fff8ea" opacity="0.95"/><text x="98" y="92" fill="#171512" font-family="Georgia,serif" font-size="36" font-weight="900">BUDOUBOU</text><text x="724" y="91" fill="#e6c56f" font-family="Georgia,serif" font-size="24" letter-spacing="4">HONTEN</text></g>
  <g opacity="0.94" fill="#fff8ea"><path d="M170 84c54-54 134-38 166 26 24-48 76-68 125-42 42 22 60 74 41 118-19 44-72 59-116 34-35 64-121 78-176 22-48-48-54-112-40-158z" transform="translate(508 -5) scale(.42)"/><path d="M324 246c38-22 90-12 116 22 25 33 20 79-12 106-33 27-82 26-114-4-28 36-78 44-113 18-36-27-43-77-16-112 29-37 88-45 139-30z" transform="translate(590 5) scale(.34)"/></g>
  <g opacity="0.92"><circle cx="914" cy="58" r="12" fill="#e6c56f"/><circle cx="936" cy="75" r="12" fill="#fff4d6"/><circle cx="892" cy="77" r="12" fill="#b8964a"/><path d="M892 46 C914 27 940 30 954 50 C928 51 910 52 892 46Z" fill="#8baa62"/></g>
  <path d="M62 940 C180 900 260 976 380 926 C442 900 506 906 578 928" fill="none" stroke="url(#gold)" stroke-width="7" opacity="0.84"/><path d="M700 940 C802 902 876 974 1018 918" fill="none" stroke="url(#gold)" stroke-width="7" opacity="0.74"/>
  <text x="76" y="1012" fill="#fff8ea" font-family="Arial,'Yu Gothic',sans-serif" font-size="24" font-weight="700">今日のわんちゃん</text><text x="787" y="1012" fill="#e6c56f" font-family="Georgia,serif" font-size="22" letter-spacing="3">TRATTORIA</text>
  <g transform="translate(330 760)" filter="url(#shadow)"><text x="210" y="58" text-anchor="middle" fill="#fff8ea" font-family="Georgia,serif" font-size="52" font-weight="900" letter-spacing="3">BUDOUBOU</text><text x="210" y="112" text-anchor="middle" fill="#fff8ea" font-family="Georgia,serif" font-size="32" font-weight="700">TRATTORIA</text><text x="210" y="154" text-anchor="middle" fill="#e6c56f" font-family="Georgia,serif" font-size="24">-1975-</text></g>
</svg>
