<svg xmlns="http://www.w3.org/2000/svg" width="1270" height="890" viewBox="0 0 1270 890">
  <defs>
    <mask id="outer-frame">
      <rect width="1270" height="890" fill="white"/>
      <rect x="86" y="124" width="1098" height="626" rx="14" fill="black"/>
    </mask>
    <linearGradient id="ivory" x1="0" y1="0" x2="1" y2="1">
      <stop offset="0" stop-color="#fff8ea"/>
      <stop offset="0.55" stop-color="#ead6af"/>
      <stop offset="1" stop-color="#fff4dd"/>
    </linearGradient>
    <linearGradient id="wine" x1="0" y1="0" x2="1" y2="1">
      <stop offset="0" stop-color="#6e2638"/>
      <stop offset="0.55" stop-color="#9a4152"/>
      <stop offset="1" stop-color="#542131"/>
    </linearGradient>
    <filter id="softShadow" x="-20%" y="-20%" width="140%" height="140%">
      <feDropShadow dx="0" dy="8" stdDeviation="9" flood-color="#000000" flood-opacity="0.16"/>
    </filter>
  </defs>

  <rect width="1270" height="890" fill="url(#ivory)" mask="url(#outer-frame)"/>
  <rect x="22" y="22" width="1226" height="846" rx="24" fill="none" stroke="#7d2d3f" stroke-width="10"/>
  <rect x="45" y="45" width="1180" height="800" rx="18" fill="none" stroke="rgba(126,45,63,0.28)" stroke-width="2"/>

  <rect x="62" y="58" width="512" height="86" rx="20" fill="url(#wine)" filter="url(#softShadow)"/>
  <text x="92" y="112" fill="#fff8ea" font-family="'Hiragino Mincho ProN','Yu Mincho',serif" font-size="50" font-weight="700">葡萄房</text>
  <text x="292" y="111" fill="#f5d78b" font-family="Georgia,serif" font-size="28" letter-spacing="4">KARUIZAWA</text>

  <g opacity="0.92">
    <circle cx="1114" cy="72" r="16" fill="#7d2d3f"/>
    <circle cx="1140" cy="86" r="16" fill="#9b4052"/>
    <circle cx="1088" cy="88" r="16" fill="#64283a"/>
    <circle cx="1118" cy="108" r="16" fill="#8f3548"/>
    <path d="M1094 56 C1120 33 1150 35 1168 58 C1138 58 1120 60 1094 56Z" fill="#557d4d"/>
    <path d="M1105 54 C1082 40 1058 44 1044 66 C1069 63 1087 61 1105 54Z" fill="#6b995c"/>
  </g>

  <rect x="86" y="124" width="1098" height="626" rx="14" fill="none" stroke="#ffffff" stroke-width="12"/>
  <rect x="100" y="138" width="1070" height="598" rx="9" fill="none" stroke="#7d2d3f" stroke-width="5"/>

  <path d="M54 770 C210 720 320 812 468 746 C536 716 602 724 678 748" fill="none" stroke="#7d2d3f" stroke-width="7" opacity="0.76"/>
  <text x="70" y="829" fill="#5b2535" font-family="'Hiragino Sans','Yu Gothic',sans-serif" font-size="26" font-weight="700">今日のわんちゃん</text>
  <text x="1002" y="830" fill="#7d2d3f" font-family="Georgia,serif" font-size="24" letter-spacing="3">Buona giornata</text>
</svg>
