<svg xmlns="http://www.w3.org/2000/svg" width="1270" height="890" viewBox="0 0 1270 890">
  <defs>
    <mask id="outer-frame">
      <rect width="1270" height="890" fill="white"/>
      <rect x="86" y="124" width="1098" height="626" rx="14" fill="black"/>
    </mask>
    <linearGradient id="forest" x1="0" y1="0" x2="1" y2="1">
      <stop offset="0" stop-color="#163f34"/>
      <stop offset="0.52" stop-color="#2d745d"/>
      <stop offset="1" stop-color="#17382f"/>
    </linearGradient>
    <linearGradient id="gold" x1="0" y1="0" x2="1" y2="0">
      <stop offset="0" stop-color="#b8964a"/>
      <stop offset="0.5" stop-color="#f0d889"/>
      <stop offset="1" stop-color="#a77b2f"/>
    </linearGradient>
    <filter id="softShadow" x="-20%" y="-20%" width="140%" height="140%">
      <feDropShadow dx="0" dy="8" stdDeviation="9" flood-color="#000000" flood-opacity="0.20"/>
    </filter>
  </defs>

  <rect width="1270" height="890" fill="url(#forest)" mask="url(#outer-frame)"/>
  <rect x="22" y="22" width="1226" height="846" rx="24" fill="none" stroke="url(#gold)" stroke-width="10"/>
  <rect x="45" y="45" width="1180" height="800" rx="18" fill="none" stroke="rgba(255,255,255,0.42)" stroke-width="2"/>

  <rect x="65" y="58" width="500" height="86" rx="20" fill="rgba(8,28,23,0.64)" filter="url(#softShadow)"/>
  <text x="92" y="112" fill="#fff7df" font-family="'Hiragino Mincho ProN','Yu Mincho',serif" font-size="50" font-weight="700">葡萄房</text>
  <text x="292" y="111" fill="#e4c56e" font-family="Georgia,serif" font-size="28" letter-spacing="4">KARUIZAWA</text>

  <g opacity="0.9">
    <circle cx="1114" cy="72" r="16" fill="#6f4a96"/>
    <circle cx="1140" cy="86" r="16" fill="#7f58a5"/>
    <circle cx="1088" cy="88" r="16" fill="#5f3f83"/>
    <circle cx="1118" cy="108" r="16" fill="#7750a0"/>
    <path d="M1094 56 C1120 33 1150 35 1168 58 C1138 58 1120 60 1094 56Z" fill="#8fbf74"/>
    <path d="M1105 54 C1082 40 1058 44 1044 66 C1069 63 1087 61 1105 54Z" fill="#6ea25f"/>
  </g>

  <rect x="86" y="124" width="1098" height="626" rx="14" fill="none" stroke="#fff8df" stroke-width="12"/>
  <rect x="100" y="138" width="1070" height="598" rx="9" fill="none" stroke="url(#gold)" stroke-width="5"/>

  <path d="M56 770 C202 730 286 792 405 748 C478 722 540 720 612 744" fill="none" stroke="#f0d889" stroke-width="7" opacity="0.82"/>
  <text x="70" y="829" fill="#fff8df" font-family="'Hiragino Sans','Yu Gothic',sans-serif" font-size="26" font-weight="700">今日のわんちゃん</text>
  <text x="1002" y="830" fill="#f0d889" font-family="Georgia,serif" font-size="24" letter-spacing="3">Buona giornata</text>
</svg>
